<svg height="512pt" viewBox="0 -18 512.00001 512" width="512pt" xmlns="http://www.w3.org/2000/svg"><path d="m19.714844 208.40625h27.527344v104.167969h-27.527344c-10.890625 0-19.714844-8.824219-19.714844-19.714844v-64.742187c0-10.886719 8.824219-19.710938 19.714844-19.710938zm0 0" fill="#99da90"/><path d="m270.996094 388.625h-185.792969c-20.964844 0-37.960937-16.996094-37.960937-37.964844v-227.902344c0-29.140624 23.625-52.765624 52.765624-52.765624h170.988282c20.96875 0 37.964844 16.996093 37.964844 37.960937v242.707031c0 20.96875-16.996094 37.964844-37.964844 37.964844zm0 0" fill="#99da90"/><path d="m115.300781 69.992188h-15.289062c-29.144531 0-52.769531 23.625-52.769531 52.765624v227.902344c0 20.96875 16.996093 37.964844 37.964843 37.964844h79.859375c-59-66.96875-62.261718-226.613281-49.765625-318.632812zm0 0" fill="#69ab8d"/><path d="m382.183594 475.476562c-14.496094 0-26.246094-11.75-26.246094-26.246093 0-39.085938-18.273438-79.925781-18.457031-80.332031-5.96875-13.191407-.136719-28.742188 13.042969-34.734376 13.179687-5.988281 28.714843-.195312 34.726562 12.976563.945312 2.074219 23.179688 51.371094 23.179688 102.09375 0 14.492187-11.75 26.242187-26.246094 26.242187zm0 0" fill="#5f75a1"/><path d="m355.9375 449.234375c0 14.492187 11.75 26.242187 26.246094 26.242187s26.246094-11.75 26.246094-26.242187c0-4.691406-.191407-9.367187-.539063-14l-52.335937 4c.242187 3.328125.382812 6.667969.382812 10zm0 0" fill="#404656"/><path d="m270.796875 475.480469c-4.996094 0-10.042969-1.421875-14.515625-4.398438-12.066406-8.027343-15.339844-24.320312-7.3125-36.386719 12.707031-19.097656 5.863281-57.464843 2.464844-69.398437-4.046875-13.921875 3.96875-28.449219 17.886718-32.492187 13.921876-4.039063 28.492188 3.992187 32.535157 17.914062 2.054687 7.070312 19.25 70.316406-9.183594 113.050781-5.054687 7.597657-13.386719 11.710938-21.875 11.710938zm0 0" fill="#5f75a1"/><path d="m252.835938 426.796875c-1.019532 2.867187-2.292969 5.53125-3.867188 7.898437-8.027344 12.066407-4.753906 28.359376 7.3125 36.390626 4.472656 2.972656 9.519531 4.394531 14.515625 4.394531 8.488281 0 16.820313-4.113281 21.875-11.710938 2.964844-4.457031 5.429687-9.140625 7.46875-13.957031zm0 0" fill="#404656"/><path d="m444.886719 321.371094c-5.050781 0-10.125-.421875-15.175781-1.28125-25.921876-4.402344-48.550782-19.710938-63.71875-43.109375-7.882813-12.164063-4.414063-28.414063 7.746093-36.300781 12.164063-7.882813 28.414063-4.414063 36.300781 7.75 9.078126 14.003906 20.488282 18.558593 28.457032 19.914062 10.402344 1.765625 21.019531-.820312 29.121094-7.097656 11.457031-8.878906 27.945312-6.785156 36.820312 4.671875 8.878906 11.457031 6.785156 27.941406-4.671875 36.820312-15.675781 12.144531-35.078125 18.632813-54.878906 18.632813zm0 0" fill="#a0d9e7"/><path d="m479.796875 314.351562c7.09375-2.972656 13.820313-6.851562 19.96875-11.617187 11.457031-8.875 13.550781-25.363281 4.671875-36.820313-8.875-11.453124-25.363281-13.550781-36.820312-4.671874-2.847657 2.210937-6.015626 3.953124-9.371094 5.21875zm0 0" fill="#f8dccc"/><path d="m390.859375 365.597656c-8.410156 0-16.285156-5.238281-19.25-13.617187-3.753906-10.628907 1.820313-22.292969 12.449219-26.046875 13.949218-4.929688 29.921875-14.652344 26.78125-32.972656-2.332032-13.582032-15.453125-28.121094-31.273438-28.121094-11.273437 0-20.414062-9.140625-20.414062-20.414063 0-11.273437 9.140625-20.414062 20.414062-20.414062 34.132813 0 65.542969 27.253906 71.507813 62.046875 4.652343 27.117187-6.941407 61.945312-53.417969 78.367187-2.246094.796875-4.542969 1.171875-6.796875 1.171875zm0 0" fill="#69ab8d"/><path d="m414.421875 297.511719c0-60.554688-42.714844-109.644531-95.40625-109.644531-52.695313 0-95.410156 49.089843-95.410156 109.644531 0 60.554687 42.714843 96.40625 95.410156 96.40625 52.691406 0 95.40625-35.851563 95.40625-96.40625zm0 0" fill="#a0d9e7"/><path d="m234.359375 345.179688c15.902344 31.210937 47.832031 48.742187 84.65625 48.742187 36.820313 0 68.75-17.53125 84.65625-48.742187zm0 0" fill="#5f75a1"/><path d="m512 142.691406c0-19.277344-18.394531-34.902344-41.085938-34.902344-22.691406 0-41.085937 15.625-41.085937 34.902344 0 19.273438 18.394531 34.898438 41.085937 34.898438 22.691407 0 41.085938-15.625 41.085938-34.898438zm0 0" fill="#f0cdb9"/><path d="m208.195312 142.691406c0-19.277344-18.394531-34.902344-41.085937-34.902344-22.6875 0-41.082031 15.625-41.082031 34.902344 0 19.273438 18.394531 34.898438 41.082031 34.898438 22.691406 0 41.085937-15.625 41.085937-34.898438zm0 0" fill="#f8dccc"/><path d="m475.796875 142.691406c0-78.808594-70.195313-142.691406-156.785156-142.691406-86.589844 0-156.785157 63.886719-156.785157 142.691406 0 78.804688 70.195313 124.667969 156.785157 124.667969 86.589843 0 156.785156-45.863281 156.785156-124.667969zm0 0" fill="#f8dccc"/><path d="m240.988281 18.894531c-47.066406 24.625-78.761719 70.839844-78.761719 123.796875 0 78.804688 70.195313 124.667969 156.785157 124.667969 7.914062 0 15.691406-.386719 23.289062-1.144531-158.523437-39.253906-145.398437-179.597656-101.3125-247.320313zm0 0" fill="#f0cdb9"/><path d="m258.457031 174.644531c0-15.570312-15.851562-28.195312-35.40625-28.195312-19.558593 0-35.410156 12.625-35.410156 28.195312 0 15.574219 15.851563 28.199219 35.410156 28.199219 19.554688 0 35.40625-12.625 35.40625-28.199219zm0 0" fill="#f8b8bd"/><path d="m450.386719 174.644531c0-15.570312-15.855469-28.195312-35.410157-28.195312-19.554687 0-35.410156 12.625-35.410156 28.195312 0 15.574219 15.855469 28.199219 35.410156 28.199219 19.554688 0 35.410157-12.625 35.410157-28.199219zm0 0" fill="#f8b8bd"/><g fill="#404656"><path d="m243.683594 154.015625c-4.140625 0-7.5-3.359375-7.5-7.5v-12.503906c0-4.140625 3.359375-7.5 7.5-7.5 4.144531 0 7.5 3.359375 7.5 7.5v12.503906c0 4.144531-3.355469 7.5-7.5 7.5zm0 0"/><path d="m394.339844 154.015625c-4.140625 0-7.5-3.359375-7.5-7.5v-12.503906c0-4.140625 3.359375-7.5 7.5-7.5 4.144531 0 7.5 3.359375 7.5 7.5v12.503906c0 4.144531-3.355469 7.5-7.5 7.5zm0 0"/><path d="m319.011719 163.617188c-9.777344 0-19.078125-4.234376-25.511719-11.621094-2.722656-3.121094-2.398438-7.859375.726562-10.582032 3.121094-2.71875 7.859376-2.394531 10.582032.730469 3.585937 4.113281 8.761718 6.472657 14.207031 6.472657 5.4375 0 10.617187-2.359376 14.203125-6.472657 2.722656-3.125 7.460938-3.449219 10.582031-.730469 3.121094 2.722657 3.449219 7.460938.726563 10.582032-6.4375 7.386718-15.734375 11.621094-25.515625 11.621094zm0 0"/><path d="m473.953125 120.742188c-11.601563-68.386719-76.550781-120.742188-154.941406-120.742188-78.386719 0-143.335938 52.359375-154.9375 120.742188 25.140625-4.214844 58.050781-25.171876 76.21875-49.347657.9375 10.417969 4.023437 17.949219 7.222656 23.492188.882813 1.535156 2.648437 2.351562 4.375 1.957031 18.996094-4.355469 59.59375-29.5 67.121094-47.027344 7.53125 17.527344 48.128906 42.671875 67.125 47.027344 1.726562.394531 3.488281-.421875 4.375-1.957031 3.199219-5.542969 6.285156-13.074219 7.222656-23.492188 18.167969 24.175781 51.078125 45.132813 76.21875 49.347657zm0 0"/></g><path d="m240.984375 18.90625c-40.425781 21.152344-69.515625 58.234375-76.910156 101.835938 15.160156-2.542969 33.140625-11.175782 49.011719-22.925782 3.503906-29.839844 14.207031-57.875 27.898437-78.910156zm0 0" fill="#353947"/><path d="m212.84375 365.597656c-8.410156 0-16.285156-5.238281-19.246094-13.617187-3.757812-10.628907 1.816406-22.292969 12.445313-26.046875 13.949219-4.929688 29.921875-14.652344 26.78125-32.972656-2.332031-13.582032-15.453125-28.121094-31.273438-28.121094-11.273437 0-20.410156-9.140625-20.410156-20.414063 0-11.273437 9.136719-20.414062 20.410156-20.414062 34.132813 0 65.542969 27.253906 71.511719 62.046875 4.648438 27.117187-6.945312 61.945312-53.421875 78.367187-2.246094.796875-4.539063 1.171875-6.796875 1.171875zm0 0" fill="#69ab8d"/><path d="m258.519531 352.492188c-7.859375 0-14.652343-1.226563-20.285156-2.921876-15.644531-4.707031-36.988281-17.257812-49.851563-50.328124-5.253906-13.511719 1.4375-28.71875 14.945313-33.972657 13.511719-5.257812 28.722656 1.4375 33.976563 14.945313 2.863281 7.367187 7.976562 16.660156 16.050781 19.089844 8.488281 2.554687 21.710937-1.886719 36.273437-12.179688 11.835938-8.367188 28.210938-5.558594 36.582032 6.277344 8.367187 11.832031 5.554687 28.210937-6.277344 36.582031-24.40625 17.253906-45.175782 22.507813-61.414063 22.507813zm0 0" fill="#a0d9e7"/><path d="m119.832031 346.039062h-58.128906c-7.988281 0-14.460937-6.476562-14.460937-14.460937v-54.183594h87.050781v54.183594c0 7.984375-6.476563 14.460937-14.460938 14.460937zm0 0" fill="#f5ea72"/><path d="m130.777344 295.296875h-80.019532c-5.21875 0-9.449218-4.230469-9.449218-9.449219v-5.988281c0-11.246094 9.121094-20.367187 20.367187-20.367187h58.179688c11.25 0 20.367187 9.121093 20.367187 20.367187v5.988281c.003906 5.21875-4.226562 9.449219-9.445312 9.449219zm0 0" fill="#eab65f"/><path d="m100.011719 69.992188c-1.535157 0-3.050781.078124-4.550781.207031-7.589844 8.769531-12.195313 20.183593-12.195313 32.660156v95.582031c0 4.140625 3.359375 7.5 7.5 7.5 4.144531 0 7.5-3.359375 7.5-7.5v-95.582031c0-15.078125 9.59375-27.960937 22.996094-32.867187zm0 0" fill="#deddf5"/><path d="m303.210938 340.308594c5.359374-2.828125 10.9375-6.238282 16.71875-10.324219 11.835937-8.371094 14.644531-24.746094 6.277343-36.582031-8.367187-11.835938-24.742187-14.644532-36.582031-6.277344-4.109375 2.90625-8.105469 5.328125-11.929688 7.273438zm0 0" fill="#f8dccc"/></svg>